<?xml version="1.0" encoding="UTF-8" standalone="no"?>
<!DOCTYPE svg PUBLIC "-//W3C//DTD SVG 1.1//EN"
 "http://www.w3.org/Graphics/SVG/1.1/DTD/svg11.dtd">
<!-- Generated by graphviz version 2.47.0 (20210316.0004)
 -->
<!-- Title: dbml Pages: 1 -->
<svg width="2527pt" height="2507pt"
 viewBox="0.00 0.00 2527.23 2506.92" xmlns="http://www.w3.org/2000/svg" xmlns:xlink="http://www.w3.org/1999/xlink">
<g id="graph0" class="graph" transform="scale(1 1) rotate(0) translate(4 2502.92)">
<title>dbml</title>
<!-- AudienceVote -->
<g id="AudienceVote" class="node">
<title>AudienceVote</title>
<ellipse fill="none" stroke="black" stroke-width="0" cx="339.41" cy="-1921.39" rx="246.56" ry="214.92"/>
<polygon fill="#1d71b8" stroke="transparent" points="167.41,-2011.39 167.41,-2071.39 512.41,-2071.39 512.41,-2011.39 167.41,-2011.39"/>
<polygon fill="none" stroke="#29235c" points="167.41,-2011.39 167.41,-2071.39 512.41,-2071.39 512.41,-2011.39 167.41,-2011.39"/>
<text text-anchor="start" x="178.06" y="-2032.59" font-family="Helvetica,sans-Serif" font-weight="bold" font-size="32.00" fill="#ffffff"> &#160;&#160;&#160;&#160;&#160;&#160;AudienceVote &#160;&#160;&#160;&#160;&#160;&#160;</text>
<polygon fill="#e7e2dd" stroke="transparent" points="167.41,-1951.39 167.41,-2011.39 512.41,-2011.39 512.41,-1951.39 167.41,-1951.39"/>
<polygon fill="none" stroke="#29235c" points="167.41,-1951.39 167.41,-2011.39 512.41,-2011.39 512.41,-1951.39 167.41,-1951.39"/>
<text text-anchor="start" x="178.41" y="-1972.59" font-family="Helvetica,sans-Serif" font-weight="bold" font-size="32.00" fill="#29235c">id</text>
<text text-anchor="start" x="203.3" y="-1972.59" font-family="Helvetica,sans-Serif" font-size="32.00" fill="#29235c"> &#160;&#160;&#160;</text>
<text text-anchor="start" x="359.19" y="-1972.59" font-family="Helvetica,sans-Serif" font-style="italic" font-size="32.00" fill="#29235c">INTEGER</text>
<polygon fill="#e7e2dd" stroke="transparent" points="167.41,-1891.39 167.41,-1951.39 512.41,-1951.39 512.41,-1891.39 167.41,-1891.39"/>
<polygon fill="none" stroke="#29235c" points="167.41,-1891.39 167.41,-1951.39 512.41,-1951.39 512.41,-1891.39 167.41,-1891.39"/>
<text text-anchor="start" x="178.41" y="-1911.59" font-family="Helvetica,sans-Serif" font-size="32.00" fill="#29235c">event_id &#160;&#160;&#160;</text>
<text text-anchor="start" x="359.19" y="-1912.59" font-family="Helvetica,sans-Serif" font-style="italic" font-size="32.00" fill="#29235c">INTEGER</text>
<polygon fill="#e7e2dd" stroke="transparent" points="167.41,-1831.39 167.41,-1891.39 512.41,-1891.39 512.41,-1831.39 167.41,-1831.39"/>
<polygon fill="none" stroke="#29235c" points="167.41,-1831.39 167.41,-1891.39 512.41,-1891.39 512.41,-1831.39 167.41,-1831.39"/>
<text text-anchor="start" x="178.41" y="-1851.59" font-family="Helvetica,sans-Serif" font-size="32.00" fill="#29235c">song_id &#160;&#160;&#160;</text>
<text text-anchor="start" x="359.19" y="-1852.59" font-family="Helvetica,sans-Serif" font-style="italic" font-size="32.00" fill="#29235c">INTEGER</text>
<polygon fill="#e7e2dd" stroke="transparent" points="167.41,-1771.39 167.41,-1831.39 512.41,-1831.39 512.41,-1771.39 167.41,-1771.39"/>
<polygon fill="none" stroke="#29235c" points="167.41,-1771.39 167.41,-1831.39 512.41,-1831.39 512.41,-1771.39 167.41,-1771.39"/>
<text text-anchor="start" x="178.41" y="-1791.59" font-family="Helvetica,sans-Serif" font-size="32.00" fill="#29235c">points &#160;&#160;&#160;</text>
<text text-anchor="start" x="359.19" y="-1792.59" font-family="Helvetica,sans-Serif" font-style="italic" font-size="32.00" fill="#29235c">INTEGER</text>
<polygon fill="none" stroke="#29235c" stroke-width="2" points="165.91,-1770.39 165.91,-2072.39 512.91,-2072.39 512.91,-1770.39 165.91,-1770.39"/>
</g>
<!-- Event -->
<g id="Event" class="node">
<title>Event</title>
<ellipse fill="none" stroke="black" stroke-width="0" cx="1037.26" cy="-1839.39" rx="203.79" ry="257.27"/>
<polygon fill="#1d71b8" stroke="transparent" points="895.26,-1959.39 895.26,-2019.39 1179.26,-2019.39 1179.26,-1959.39 895.26,-1959.39"/>
<polygon fill="none" stroke="#29235c" points="895.26,-1959.39 895.26,-2019.39 1179.26,-2019.39 1179.26,-1959.39 895.26,-1959.39"/>
<text text-anchor="start" x="934.11" y="-1980.59" font-family="Helvetica,sans-Serif" font-weight="bold" font-size="32.00" fill="#ffffff"> &#160;&#160;&#160;&#160;&#160;&#160;Event &#160;&#160;&#160;&#160;&#160;&#160;</text>
<polygon fill="#e7e2dd" stroke="transparent" points="895.26,-1899.39 895.26,-1959.39 1179.26,-1959.39 1179.26,-1899.39 895.26,-1899.39"/>
<polygon fill="none" stroke="#29235c" points="895.26,-1899.39 895.26,-1959.39 1179.26,-1959.39 1179.26,-1899.39 895.26,-1899.39"/>
<text text-anchor="start" x="906.26" y="-1920.59" font-family="Helvetica,sans-Serif" font-weight="bold" font-size="32.00" fill="#29235c">id</text>
<text text-anchor="start" x="931.15" y="-1920.59" font-family="Helvetica,sans-Serif" font-size="32.00" fill="#29235c"> &#160;&#160;&#160;</text>
<text text-anchor="start" x="1026.05" y="-1920.59" font-family="Helvetica,sans-Serif" font-style="italic" font-size="32.00" fill="#29235c">INTEGER</text>
<polygon fill="#e7e2dd" stroke="transparent" points="895.26,-1839.39 895.26,-1899.39 1179.26,-1899.39 1179.26,-1839.39 895.26,-1839.39"/>
<polygon fill="none" stroke="#29235c" points="895.26,-1839.39 895.26,-1899.39 1179.26,-1899.39 1179.26,-1839.39 895.26,-1839.39"/>
<text text-anchor="start" x="906.26" y="-1859.59" font-family="Helvetica,sans-Serif" font-size="32.00" fill="#29235c">year &#160;&#160;&#160;</text>
<text text-anchor="start" x="1026.05" y="-1860.59" font-family="Helvetica,sans-Serif" font-style="italic" font-size="32.00" fill="#29235c">INTEGER</text>
<polygon fill="#e7e2dd" stroke="transparent" points="895.26,-1779.39 895.26,-1839.39 1179.26,-1839.39 1179.26,-1779.39 895.26,-1779.39"/>
<polygon fill="none" stroke="#29235c" points="895.26,-1779.39 895.26,-1839.39 1179.26,-1839.39 1179.26,-1779.39 895.26,-1779.39"/>
<text text-anchor="start" x="906.26" y="-1799.59" font-family="Helvetica,sans-Serif" font-size="32.00" fill="#29235c">city &#160;&#160;&#160;</text>
<text text-anchor="start" x="1011.84" y="-1800.59" font-family="Helvetica,sans-Serif" font-style="italic" font-size="32.00" fill="#29235c">VARCHAR</text>
<polygon fill="#e7e2dd" stroke="transparent" points="895.26,-1719.39 895.26,-1779.39 1179.26,-1779.39 1179.26,-1719.39 895.26,-1719.39"/>
<polygon fill="none" stroke="#29235c" points="895.26,-1719.39 895.26,-1779.39 1179.26,-1779.39 1179.26,-1719.39 895.26,-1719.39"/>
<text text-anchor="start" x="905.84" y="-1739.59" font-family="Helvetica,sans-Serif" font-size="32.00" fill="#29235c">start_date &#160;&#160;&#160;</text>
<text text-anchor="start" x="1083.1" y="-1740.59" font-family="Helvetica,sans-Serif" font-style="italic" font-size="32.00" fill="#29235c">DATE</text>
<polygon fill="#e7e2dd" stroke="transparent" points="895.26,-1659.39 895.26,-1719.39 1179.26,-1719.39 1179.26,-1659.39 895.26,-1659.39"/>
<polygon fill="none" stroke="#29235c" points="895.26,-1659.39 895.26,-1719.39 1179.26,-1719.39 1179.26,-1659.39 895.26,-1659.39"/>
<text text-anchor="start" x="906.26" y="-1679.59" font-family="Helvetica,sans-Serif" font-size="32.00" fill="#29235c">end_date &#160;&#160;&#160;</text>
<text text-anchor="start" x="1082.93" y="-1680.59" font-family="Helvetica,sans-Serif" font-style="italic" font-size="32.00" fill="#29235c">DATE</text>
<polygon fill="none" stroke="#29235c" stroke-width="2" points="894.26,-1658.39 894.26,-2020.39 1180.26,-2020.39 1180.26,-1658.39 894.26,-1658.39"/>
</g>
<!-- AudienceVote&#45;&gt;Event -->
<!-- AudienceVote&#45;&gt;Event -->
<g id="edge2" class="edge">
<title>AudienceVote:e&#45;&gt;Event:w</title>
<path fill="none" stroke="#29235c" stroke-width="3" d="M513.41,-1921.39C679.24,-1921.39 723.17,-1929.06 884.01,-1929.38"/>
<polygon fill="#29235c" stroke="#29235c" stroke-width="3" points="884.26,-1932.88 894.26,-1929.39 884.27,-1925.88 884.26,-1932.88"/>
<text text-anchor="middle" x="900.49" y="-1938.99" font-family="Helvetica,sans-Serif" font-size="32.00" fill="#29235c">*</text>
<text text-anchor="middle" x="522.31" y="-1930.99" font-family="Helvetica,sans-Serif" font-size="32.00" fill="#29235c">1</text>
</g>
<!-- Song -->
<g id="Song" class="node">
<title>Song</title>
<ellipse fill="none" stroke="black" stroke-width="0" cx="1037.26" cy="-1306.39" rx="277.79" ry="257.27"/>
<polygon fill="#1d71b8" stroke="transparent" points="843.26,-1426.39 843.26,-1486.39 1232.26,-1486.39 1232.26,-1426.39 843.26,-1426.39"/>
<polygon fill="none" stroke="#29235c" points="843.26,-1426.39 843.26,-1486.39 1232.26,-1486.39 1232.26,-1426.39 843.26,-1426.39"/>
<text text-anchor="start" x="938.16" y="-1447.59" font-family="Helvetica,sans-Serif" font-weight="bold" font-size="32.00" fill="#ffffff"> &#160;&#160;&#160;&#160;&#160;&#160;Song &#160;&#160;&#160;&#160;&#160;&#160;</text>
<polygon fill="#e7e2dd" stroke="transparent" points="843.26,-1366.39 843.26,-1426.39 1232.26,-1426.39 1232.26,-1366.39 843.26,-1366.39"/>
<polygon fill="none" stroke="#29235c" points="843.26,-1366.39 843.26,-1426.39 1232.26,-1426.39 1232.26,-1366.39 843.26,-1366.39"/>
<text text-anchor="start" x="854.26" y="-1387.59" font-family="Helvetica,sans-Serif" font-weight="bold" font-size="32.00" fill="#29235c">id</text>
<text text-anchor="start" x="879.15" y="-1387.59" font-family="Helvetica,sans-Serif" font-size="32.00" fill="#29235c"> &#160;&#160;&#160;</text>
<text text-anchor="start" x="1079.05" y="-1387.59" font-family="Helvetica,sans-Serif" font-style="italic" font-size="32.00" fill="#29235c">INTEGER</text>
<polygon fill="#e7e2dd" stroke="transparent" points="843.26,-1306.39 843.26,-1366.39 1232.26,-1366.39 1232.26,-1306.39 843.26,-1306.39"/>
<polygon fill="none" stroke="#29235c" points="843.26,-1306.39 843.26,-1366.39 1232.26,-1366.39 1232.26,-1306.39 843.26,-1306.39"/>
<text text-anchor="start" x="854.26" y="-1326.59" font-family="Helvetica,sans-Serif" font-size="32.00" fill="#29235c">title &#160;&#160;&#160;</text>
<text text-anchor="start" x="1064.84" y="-1327.59" font-family="Helvetica,sans-Serif" font-style="italic" font-size="32.00" fill="#29235c">VARCHAR</text>
<polygon fill="#e7e2dd" stroke="transparent" points="843.26,-1246.39 843.26,-1306.39 1232.26,-1306.39 1232.26,-1246.39 843.26,-1246.39"/>
<polygon fill="none" stroke="#29235c" points="843.26,-1246.39 843.26,-1306.39 1232.26,-1306.39 1232.26,-1246.39 843.26,-1246.39"/>
<text text-anchor="start" x="854.26" y="-1266.59" font-family="Helvetica,sans-Serif" font-size="32.00" fill="#29235c">duration &#160;&#160;&#160;</text>
<text text-anchor="start" x="1079.05" y="-1267.59" font-family="Helvetica,sans-Serif" font-style="italic" font-size="32.00" fill="#29235c">INTEGER</text>
<polygon fill="#e7e2dd" stroke="transparent" points="843.26,-1186.39 843.26,-1246.39 1232.26,-1246.39 1232.26,-1186.39 843.26,-1186.39"/>
<polygon fill="none" stroke="#29235c" points="843.26,-1186.39 843.26,-1246.39 1232.26,-1246.39 1232.26,-1186.39 843.26,-1186.39"/>
<text text-anchor="start" x="853.83" y="-1206.59" font-family="Helvetica,sans-Serif" font-size="32.00" fill="#29235c">contestant_id &#160;&#160;&#160;</text>
<text text-anchor="start" x="1079.15" y="-1207.59" font-family="Helvetica,sans-Serif" font-style="italic" font-size="32.00" fill="#29235c">INTEGER</text>
<polygon fill="#e7e2dd" stroke="transparent" points="843.26,-1126.39 843.26,-1186.39 1232.26,-1186.39 1232.26,-1126.39 843.26,-1126.39"/>
<polygon fill="none" stroke="#29235c" points="843.26,-1126.39 843.26,-1186.39 1232.26,-1186.39 1232.26,-1126.39 843.26,-1126.39"/>
<text text-anchor="start" x="854.26" y="-1146.59" font-family="Helvetica,sans-Serif" font-size="32.00" fill="#29235c">language &#160;&#160;&#160;</text>
<text text-anchor="start" x="1064.84" y="-1147.59" font-family="Helvetica,sans-Serif" font-style="italic" font-size="32.00" fill="#29235c">VARCHAR</text>
<polygon fill="none" stroke="#29235c" stroke-width="2" points="841.76,-1125.39 841.76,-1487.39 1232.76,-1487.39 1232.76,-1125.39 841.76,-1125.39"/>
</g>
<!-- AudienceVote&#45;&gt;Song -->
<!-- AudienceVote&#45;&gt;Song -->
<g id="edge4" class="edge">
<title>AudienceVote:e&#45;&gt;Song:w</title>
<path fill="none" stroke="#29235c" stroke-width="3" d="M513.41,-1861.39C616.94,-1861.39 625.94,-1786.39 678.82,-1697.39 708.14,-1648.05 689.69,-1624.98 714.82,-1573.39 755.74,-1489.39 746.12,-1402.88 832.17,-1396.73"/>
<polygon fill="#29235c" stroke="#29235c" stroke-width="3" points="832.39,-1400.23 842.26,-1396.39 832.15,-1393.23 832.39,-1400.23"/>
<text text-anchor="middle" x="848.49" y="-1405.99" font-family="Helvetica,sans-Serif" font-size="32.00" fill="#29235c">*</text>
<text text-anchor="middle" x="522.31" y="-1870.99" font-family="Helvetica,sans-Serif" font-size="32.00" fill="#29235c">1</text>
</g>
<!-- Contestant -->
<g id="Contestant" class="node">
<title>Contestant</title>
<ellipse fill="none" stroke="black" stroke-width="0" cx="1675.01" cy="-1336.39" rx="248.39" ry="214.92"/>
<polygon fill="#1d71b8" stroke="transparent" points="1502.01,-1426.39 1502.01,-1486.39 1849.01,-1486.39 1849.01,-1426.39 1502.01,-1426.39"/>
<polygon fill="none" stroke="#29235c" points="1502.01,-1426.39 1502.01,-1486.39 1849.01,-1486.39 1849.01,-1426.39 1502.01,-1426.39"/>
<text text-anchor="start" x="1535.9" y="-1447.59" font-family="Helvetica,sans-Serif" font-weight="bold" font-size="32.00" fill="#ffffff"> &#160;&#160;&#160;&#160;&#160;&#160;Contestant &#160;&#160;&#160;&#160;&#160;&#160;</text>
<polygon fill="#e7e2dd" stroke="transparent" points="1502.01,-1366.39 1502.01,-1426.39 1849.01,-1426.39 1849.01,-1366.39 1502.01,-1366.39"/>
<polygon fill="none" stroke="#29235c" points="1502.01,-1366.39 1502.01,-1426.39 1849.01,-1426.39 1849.01,-1366.39 1502.01,-1366.39"/>
<text text-anchor="start" x="1513.01" y="-1387.59" font-family="Helvetica,sans-Serif" font-weight="bold" font-size="32.00" fill="#29235c">id</text>
<text text-anchor="start" x="1537.9" y="-1387.59" font-family="Helvetica,sans-Serif" font-size="32.00" fill="#29235c"> &#160;&#160;&#160;</text>
<text text-anchor="start" x="1695.79" y="-1387.59" font-family="Helvetica,sans-Serif" font-style="italic" font-size="32.00" fill="#29235c">INTEGER</text>
<polygon fill="#e7e2dd" stroke="transparent" points="1502.01,-1306.39 1502.01,-1366.39 1849.01,-1366.39 1849.01,-1306.39 1502.01,-1306.39"/>
<polygon fill="none" stroke="#29235c" points="1502.01,-1306.39 1502.01,-1366.39 1849.01,-1366.39 1849.01,-1306.39 1502.01,-1306.39"/>
<text text-anchor="start" x="1513.01" y="-1326.59" font-family="Helvetica,sans-Serif" font-size="32.00" fill="#29235c">name &#160;&#160;&#160;</text>
<text text-anchor="start" x="1681.59" y="-1327.59" font-family="Helvetica,sans-Serif" font-style="italic" font-size="32.00" fill="#29235c">VARCHAR</text>
<polygon fill="#e7e2dd" stroke="transparent" points="1502.01,-1246.39 1502.01,-1306.39 1849.01,-1306.39 1849.01,-1246.39 1502.01,-1246.39"/>
<polygon fill="none" stroke="#29235c" points="1502.01,-1246.39 1502.01,-1306.39 1849.01,-1306.39 1849.01,-1246.39 1502.01,-1246.39"/>
<text text-anchor="start" x="1512.93" y="-1266.59" font-family="Helvetica,sans-Serif" font-size="32.00" fill="#29235c">country_id &#160;&#160;&#160;</text>
<text text-anchor="start" x="1695.9" y="-1267.59" font-family="Helvetica,sans-Serif" font-style="italic" font-size="32.00" fill="#29235c">INTEGER</text>
<polygon fill="#e7e2dd" stroke="transparent" points="1502.01,-1186.39 1502.01,-1246.39 1849.01,-1246.39 1849.01,-1186.39 1502.01,-1186.39"/>
<polygon fill="none" stroke="#29235c" points="1502.01,-1186.39 1502.01,-1246.39 1849.01,-1246.39 1849.01,-1186.39 1502.01,-1186.39"/>
<text text-anchor="start" x="1513.01" y="-1206.59" font-family="Helvetica,sans-Serif" font-size="32.00" fill="#29235c">bio &#160;&#160;&#160;</text>
<text text-anchor="start" x="1681.59" y="-1207.59" font-family="Helvetica,sans-Serif" font-style="italic" font-size="32.00" fill="#29235c">VARCHAR</text>
<polygon fill="none" stroke="#29235c" stroke-width="2" points="1500.51,-1185.39 1500.51,-1487.39 1849.51,-1487.39 1849.51,-1185.39 1500.51,-1185.39"/>
</g>
<!-- Song&#45;&gt;Contestant -->
<!-- Song&#45;&gt;Contestant -->
<g id="edge6" class="edge">
<title>Song:e&#45;&gt;Contestant:w</title>
<path fill="none" stroke="#29235c" stroke-width="3" d="M1233.26,-1216.39C1373.15,-1216.39 1358.45,-1387.71 1490.79,-1396.07"/>
<polygon fill="#29235c" stroke="#29235c" stroke-width="3" points="1490.91,-1399.58 1501.01,-1396.39 1491.12,-1392.58 1490.91,-1399.58"/>
<text text-anchor="middle" x="1494.79" y="-1405.99" font-family="Helvetica,sans-Serif" font-size="32.00" fill="#29235c">*</text>
<text text-anchor="middle" x="1242.16" y="-1225.99" font-family="Helvetica,sans-Serif" font-size="32.00" fill="#29235c">1</text>
</g>
<!-- Country -->
<g id="Country" class="node">
<title>Country</title>
<ellipse fill="none" stroke="black" stroke-width="0" cx="2254.78" cy="-973.39" rx="264.42" ry="214.92"/>
<polygon fill="#1d71b8" stroke="transparent" points="2069.78,-1063.39 2069.78,-1123.39 2439.78,-1123.39 2439.78,-1063.39 2069.78,-1063.39"/>
<polygon fill="none" stroke="#29235c" points="2069.78,-1063.39 2069.78,-1123.39 2439.78,-1123.39 2439.78,-1063.39 2069.78,-1063.39"/>
<text text-anchor="start" x="2136.52" y="-1084.59" font-family="Helvetica,sans-Serif" font-weight="bold" font-size="32.00" fill="#ffffff"> &#160;&#160;&#160;&#160;&#160;&#160;Country &#160;&#160;&#160;&#160;&#160;&#160;</text>
<polygon fill="#e7e2dd" stroke="transparent" points="2069.78,-1003.39 2069.78,-1063.39 2439.78,-1063.39 2439.78,-1003.39 2069.78,-1003.39"/>
<polygon fill="none" stroke="#29235c" points="2069.78,-1003.39 2069.78,-1063.39 2439.78,-1063.39 2439.78,-1003.39 2069.78,-1003.39"/>
<text text-anchor="start" x="2080.78" y="-1024.59" font-family="Helvetica,sans-Serif" font-weight="bold" font-size="32.00" fill="#29235c">id</text>
<text text-anchor="start" x="2105.67" y="-1024.59" font-family="Helvetica,sans-Serif" font-size="32.00" fill="#29235c"> &#160;&#160;&#160;</text>
<text text-anchor="start" x="2286.56" y="-1024.59" font-family="Helvetica,sans-Serif" font-style="italic" font-size="32.00" fill="#29235c">INTEGER</text>
<polygon fill="#e7e2dd" stroke="transparent" points="2069.78,-943.39 2069.78,-1003.39 2439.78,-1003.39 2439.78,-943.39 2069.78,-943.39"/>
<polygon fill="none" stroke="#29235c" points="2069.78,-943.39 2069.78,-1003.39 2439.78,-1003.39 2439.78,-943.39 2069.78,-943.39"/>
<text text-anchor="start" x="2080.78" y="-963.59" font-family="Helvetica,sans-Serif" font-size="32.00" fill="#29235c">name &#160;&#160;&#160;</text>
<text text-anchor="start" x="2272.35" y="-964.59" font-family="Helvetica,sans-Serif" font-style="italic" font-size="32.00" fill="#29235c">VARCHAR</text>
<polygon fill="#e7e2dd" stroke="transparent" points="2069.78,-883.39 2069.78,-943.39 2439.78,-943.39 2439.78,-883.39 2069.78,-883.39"/>
<polygon fill="none" stroke="#29235c" points="2069.78,-883.39 2069.78,-943.39 2439.78,-943.39 2439.78,-883.39 2069.78,-883.39"/>
<text text-anchor="start" x="2080.78" y="-903.59" font-family="Helvetica,sans-Serif" font-size="32.00" fill="#29235c">code &#160;&#160;&#160;</text>
<text text-anchor="start" x="2272.35" y="-904.59" font-family="Helvetica,sans-Serif" font-style="italic" font-size="32.00" fill="#29235c">VARCHAR</text>
<polygon fill="#e7e2dd" stroke="transparent" points="2069.78,-823.39 2069.78,-883.39 2439.78,-883.39 2439.78,-823.39 2069.78,-823.39"/>
<polygon fill="none" stroke="#29235c" points="2069.78,-823.39 2069.78,-883.39 2439.78,-883.39 2439.78,-823.39 2069.78,-823.39"/>
<text text-anchor="start" x="2080.75" y="-843.59" font-family="Helvetica,sans-Serif" font-size="32.00" fill="#29235c">flag_image &#160;&#160;&#160;</text>
<text text-anchor="start" x="2272.56" y="-844.59" font-family="Helvetica,sans-Serif" font-style="italic" font-size="32.00" fill="#29235c">VARCHAR</text>
<polygon fill="none" stroke="#29235c" stroke-width="2" points="2068.78,-822.39 2068.78,-1124.39 2440.78,-1124.39 2440.78,-822.39 2068.78,-822.39"/>
</g>
<!-- Contestant&#45;&gt;Country -->
<!-- Contestant&#45;&gt;Country -->
<g id="edge8" class="edge">
<title>Contestant:e&#45;&gt;Country:w</title>
<path fill="none" stroke="#29235c" stroke-width="3" d="M1850.01,-1276.39C1991.78,-1276.39 1926.84,-1045.11 2058.51,-1033.81"/>
<polygon fill="#29235c" stroke="#29235c" stroke-width="3" points="2058.93,-1037.3 2068.78,-1033.39 2058.64,-1030.31 2058.93,-1037.3"/>
<text text-anchor="middle" x="2062.55" y="-1004.59" font-family="Helvetica,sans-Serif" font-size="32.00" fill="#29235c">*</text>
<text text-anchor="middle" x="1841.12" y="-1285.99" font-family="Helvetica,sans-Serif" font-size="32.00" fill="#29235c">1</text>
</g>
<!-- EventParticipation -->
<g id="EventParticipation" class="node">
<title>EventParticipation</title>
<ellipse fill="none" stroke="black" stroke-width="0" cx="339.41" cy="-2326.39" rx="288.5" ry="172.57"/>
<polygon fill="#1d71b8" stroke="transparent" points="137.41,-2386.39 137.41,-2446.39 541.41,-2446.39 541.41,-2386.39 137.41,-2386.39"/>
<polygon fill="none" stroke="#29235c" points="137.41,-2386.39 137.41,-2446.39 541.41,-2446.39 541.41,-2386.39 137.41,-2386.39"/>
<text text-anchor="start" x="148.24" y="-2407.59" font-family="Helvetica,sans-Serif" font-weight="bold" font-size="32.00" fill="#ffffff"> &#160;&#160;&#160;&#160;&#160;&#160;EventParticipation &#160;&#160;&#160;&#160;&#160;&#160;</text>
<polygon fill="#e7e2dd" stroke="transparent" points="137.41,-2326.39 137.41,-2386.39 541.41,-2386.39 541.41,-2326.39 137.41,-2326.39"/>
<polygon fill="none" stroke="#29235c" points="137.41,-2326.39 137.41,-2386.39 541.41,-2386.39 541.41,-2326.39 137.41,-2326.39"/>
<text text-anchor="start" x="148.41" y="-2347.59" font-family="Helvetica,sans-Serif" font-weight="bold" font-size="32.00" fill="#29235c">id</text>
<text text-anchor="start" x="173.3" y="-2347.59" font-family="Helvetica,sans-Serif" font-size="32.00" fill="#29235c"> &#160;&#160;&#160;</text>
<text text-anchor="start" x="388.19" y="-2347.59" font-family="Helvetica,sans-Serif" font-style="italic" font-size="32.00" fill="#29235c">INTEGER</text>
<polygon fill="#e7e2dd" stroke="transparent" points="137.41,-2266.39 137.41,-2326.39 541.41,-2326.39 541.41,-2266.39 137.41,-2266.39"/>
<polygon fill="none" stroke="#29235c" points="137.41,-2266.39 137.41,-2326.39 541.41,-2326.39 541.41,-2266.39 137.41,-2266.39"/>
<text text-anchor="start" x="148.41" y="-2286.59" font-family="Helvetica,sans-Serif" font-size="32.00" fill="#29235c">event_id &#160;&#160;&#160;</text>
<text text-anchor="start" x="388.19" y="-2287.59" font-family="Helvetica,sans-Serif" font-style="italic" font-size="32.00" fill="#29235c">INTEGER</text>
<polygon fill="#e7e2dd" stroke="transparent" points="137.41,-2206.39 137.41,-2266.39 541.41,-2266.39 541.41,-2206.39 137.41,-2206.39"/>
<polygon fill="none" stroke="#29235c" points="137.41,-2206.39 137.41,-2266.39 541.41,-2266.39 541.41,-2206.39 137.41,-2206.39"/>
<text text-anchor="start" x="148.41" y="-2226.59" font-family="Helvetica,sans-Serif" font-size="32.00" fill="#29235c">contestant_id &#160;&#160;&#160;</text>
<text text-anchor="start" x="388.19" y="-2227.59" font-family="Helvetica,sans-Serif" font-style="italic" font-size="32.00" fill="#29235c">INTEGER</text>
<polygon fill="none" stroke="#29235c" stroke-width="2" points="136.41,-2205.39 136.41,-2447.39 542.41,-2447.39 542.41,-2205.39 136.41,-2205.39"/>
</g>
<!-- EventParticipation&#45;&gt;Event -->
<!-- EventParticipation&#45;&gt;Event -->
<g id="edge12" class="edge">
<title>EventParticipation:e&#45;&gt;Event:w</title>
<path fill="none" stroke="#29235c" stroke-width="3" d="M542.41,-2296.39C764.95,-2296.39 671.25,-1940.41 884.22,-1929.64"/>
<polygon fill="#29235c" stroke="#29235c" stroke-width="3" points="884.35,-1933.13 894.26,-1929.39 884.18,-1926.14 884.35,-1933.13"/>
<text text-anchor="middle" x="900.49" y="-1900.59" font-family="Helvetica,sans-Serif" font-size="32.00" fill="#29235c">*</text>
<text text-anchor="middle" x="551.31" y="-2305.99" font-family="Helvetica,sans-Serif" font-size="32.00" fill="#29235c">1</text>
</g>
<!-- EventParticipation&#45;&gt;Contestant -->
<!-- EventParticipation&#45;&gt;Contestant -->
<g id="edge10" class="edge">
<title>EventParticipation:e&#45;&gt;Contestant:w</title>
<path fill="none" stroke="#29235c" stroke-width="3" d="M542.41,-2236.39C620.88,-2236.39 637.63,-2212.44 714.82,-2198.39 857.27,-2172.45 1254.62,-2204.99 1359.7,-2105.39 1590.39,-1886.72 1188.51,-1406.84 1490.91,-1396.55"/>
<polygon fill="#29235c" stroke="#29235c" stroke-width="3" points="1491.07,-1400.05 1501.01,-1396.39 1490.95,-1393.05 1491.07,-1400.05"/>
<text text-anchor="middle" x="1494.79" y="-1367.59" font-family="Helvetica,sans-Serif" font-size="32.00" fill="#29235c">*</text>
<text text-anchor="middle" x="551.31" y="-2245.99" font-family="Helvetica,sans-Serif" font-size="32.00" fill="#29235c">1</text>
</g>
<!-- Host -->
<g id="Host" class="node">
<title>Host</title>
<ellipse fill="none" stroke="black" stroke-width="0" cx="1675.01" cy="-850.39" rx="279.11" ry="214.92"/>
<polygon fill="#1d71b8" stroke="transparent" points="1480.01,-940.39 1480.01,-1000.39 1871.01,-1000.39 1871.01,-940.39 1480.01,-940.39"/>
<polygon fill="none" stroke="#29235c" points="1480.01,-940.39 1480.01,-1000.39 1871.01,-1000.39 1871.01,-940.39 1480.01,-940.39"/>
<text text-anchor="start" x="1580.37" y="-961.59" font-family="Helvetica,sans-Serif" font-weight="bold" font-size="32.00" fill="#ffffff"> &#160;&#160;&#160;&#160;&#160;&#160;Host &#160;&#160;&#160;&#160;&#160;&#160;</text>
<polygon fill="#e7e2dd" stroke="transparent" points="1480.01,-880.39 1480.01,-940.39 1871.01,-940.39 1871.01,-880.39 1480.01,-880.39"/>
<polygon fill="none" stroke="#29235c" points="1480.01,-880.39 1480.01,-940.39 1871.01,-940.39 1871.01,-880.39 1480.01,-880.39"/>
<text text-anchor="start" x="1491.01" y="-901.59" font-family="Helvetica,sans-Serif" font-weight="bold" font-size="32.00" fill="#29235c">id</text>
<text text-anchor="start" x="1515.9" y="-901.59" font-family="Helvetica,sans-Serif" font-size="32.00" fill="#29235c"> &#160;&#160;&#160;</text>
<text text-anchor="start" x="1717.79" y="-901.59" font-family="Helvetica,sans-Serif" font-style="italic" font-size="32.00" fill="#29235c">INTEGER</text>
<polygon fill="#e7e2dd" stroke="transparent" points="1480.01,-820.39 1480.01,-880.39 1871.01,-880.39 1871.01,-820.39 1480.01,-820.39"/>
<polygon fill="none" stroke="#29235c" points="1480.01,-820.39 1480.01,-880.39 1871.01,-880.39 1871.01,-820.39 1480.01,-820.39"/>
<text text-anchor="start" x="1491.01" y="-840.59" font-family="Helvetica,sans-Serif" font-size="32.00" fill="#29235c">name &#160;&#160;&#160;</text>
<text text-anchor="start" x="1703.59" y="-841.59" font-family="Helvetica,sans-Serif" font-style="italic" font-size="32.00" fill="#29235c">VARCHAR</text>
<polygon fill="#e7e2dd" stroke="transparent" points="1480.01,-760.39 1480.01,-820.39 1871.01,-820.39 1871.01,-760.39 1480.01,-760.39"/>
<polygon fill="none" stroke="#29235c" points="1480.01,-760.39 1480.01,-820.39 1871.01,-820.39 1871.01,-760.39 1480.01,-760.39"/>
<text text-anchor="start" x="1491.01" y="-780.59" font-family="Helvetica,sans-Serif" font-size="32.00" fill="#29235c">country_id &#160;&#160;&#160;</text>
<text text-anchor="start" x="1717.79" y="-781.59" font-family="Helvetica,sans-Serif" font-style="italic" font-size="32.00" fill="#29235c">INTEGER</text>
<polygon fill="#e7e2dd" stroke="transparent" points="1480.01,-700.39 1480.01,-760.39 1871.01,-760.39 1871.01,-700.39 1480.01,-700.39"/>
<polygon fill="none" stroke="#29235c" points="1480.01,-700.39 1480.01,-760.39 1871.01,-760.39 1871.01,-700.39 1480.01,-700.39"/>
<text text-anchor="start" x="1490.69" y="-720.59" font-family="Helvetica,sans-Serif" font-size="32.00" fill="#29235c">years_hosted &#160;&#160;&#160;</text>
<text text-anchor="start" x="1717.9" y="-721.59" font-family="Helvetica,sans-Serif" font-style="italic" font-size="32.00" fill="#29235c">INTEGER</text>
<polygon fill="none" stroke="#29235c" stroke-width="2" points="1478.51,-699.39 1478.51,-1001.39 1871.51,-1001.39 1871.51,-699.39 1478.51,-699.39"/>
</g>
<!-- Host&#45;&gt;Country -->
<!-- Host&#45;&gt;Country -->
<g id="edge14" class="edge">
<title>Host:e&#45;&gt;Country:w</title>
<path fill="none" stroke="#29235c" stroke-width="3" d="M1872.01,-790.39C2007.45,-790.39 1933.79,-1021.2 2058.61,-1032.92"/>
<polygon fill="#29235c" stroke="#29235c" stroke-width="3" points="2058.63,-1036.43 2068.78,-1033.39 2058.95,-1029.44 2058.63,-1036.43"/>
<text text-anchor="middle" x="2075" y="-1004.59" font-family="Helvetica,sans-Serif" font-size="32.00" fill="#29235c">*</text>
<text text-anchor="middle" x="1863.12" y="-761.59" font-family="Helvetica,sans-Serif" font-size="32.00" fill="#29235c">1</text>
</g>
<!-- Judge -->
<g id="Judge" class="node">
<title>Judge</title>
<ellipse fill="none" stroke="black" stroke-width="0" cx="1037.26" cy="-675.39" rx="322.38" ry="214.92"/>
<polygon fill="#1d71b8" stroke="transparent" points="811.26,-765.39 811.26,-825.39 1263.26,-825.39 1263.26,-765.39 811.26,-765.39"/>
<polygon fill="none" stroke="#29235c" points="811.26,-765.39 811.26,-825.39 1263.26,-825.39 1263.26,-765.39 811.26,-765.39"/>
<text text-anchor="start" x="931.44" y="-786.59" font-family="Helvetica,sans-Serif" font-weight="bold" font-size="32.00" fill="#ffffff"> &#160;&#160;&#160;&#160;&#160;&#160;Judge &#160;&#160;&#160;&#160;&#160;&#160;</text>
<polygon fill="#e7e2dd" stroke="transparent" points="811.26,-705.39 811.26,-765.39 1263.26,-765.39 1263.26,-705.39 811.26,-705.39"/>
<polygon fill="none" stroke="#29235c" points="811.26,-705.39 811.26,-765.39 1263.26,-765.39 1263.26,-705.39 811.26,-705.39"/>
<text text-anchor="start" x="822.26" y="-726.59" font-family="Helvetica,sans-Serif" font-weight="bold" font-size="32.00" fill="#29235c">id</text>
<text text-anchor="start" x="847.15" y="-726.59" font-family="Helvetica,sans-Serif" font-size="32.00" fill="#29235c"> &#160;&#160;&#160;</text>
<text text-anchor="start" x="1110.05" y="-726.59" font-family="Helvetica,sans-Serif" font-style="italic" font-size="32.00" fill="#29235c">INTEGER</text>
<polygon fill="#e7e2dd" stroke="transparent" points="811.26,-645.39 811.26,-705.39 1263.26,-705.39 1263.26,-645.39 811.26,-645.39"/>
<polygon fill="none" stroke="#29235c" points="811.26,-645.39 811.26,-705.39 1263.26,-705.39 1263.26,-645.39 811.26,-645.39"/>
<text text-anchor="start" x="822.26" y="-665.59" font-family="Helvetica,sans-Serif" font-size="32.00" fill="#29235c">name &#160;&#160;&#160;</text>
<text text-anchor="start" x="1095.84" y="-666.59" font-family="Helvetica,sans-Serif" font-style="italic" font-size="32.00" fill="#29235c">VARCHAR</text>
<polygon fill="#e7e2dd" stroke="transparent" points="811.26,-585.39 811.26,-645.39 1263.26,-645.39 1263.26,-585.39 811.26,-585.39"/>
<polygon fill="none" stroke="#29235c" points="811.26,-585.39 811.26,-645.39 1263.26,-645.39 1263.26,-585.39 811.26,-585.39"/>
<text text-anchor="start" x="822.26" y="-605.59" font-family="Helvetica,sans-Serif" font-size="32.00" fill="#29235c">country_id &#160;&#160;&#160;</text>
<text text-anchor="start" x="1110.05" y="-606.59" font-family="Helvetica,sans-Serif" font-style="italic" font-size="32.00" fill="#29235c">INTEGER</text>
<polygon fill="#e7e2dd" stroke="transparent" points="811.26,-525.39 811.26,-585.39 1263.26,-585.39 1263.26,-525.39 811.26,-525.39"/>
<polygon fill="none" stroke="#29235c" points="811.26,-525.39 811.26,-585.39 1263.26,-585.39 1263.26,-525.39 811.26,-525.39"/>
<text text-anchor="start" x="822.22" y="-545.59" font-family="Helvetica,sans-Serif" font-size="32.00" fill="#29235c">experience_years &#160;&#160;&#160;</text>
<text text-anchor="start" x="1110.15" y="-546.59" font-family="Helvetica,sans-Serif" font-style="italic" font-size="32.00" fill="#29235c">INTEGER</text>
<polygon fill="none" stroke="#29235c" stroke-width="2" points="810.26,-524.39 810.26,-826.39 1264.26,-826.39 1264.26,-524.39 810.26,-524.39"/>
</g>
<!-- Judge&#45;&gt;Country -->
<!-- Judge&#45;&gt;Country -->
<g id="edge16" class="edge">
<title>Judge:e&#45;&gt;Country:w</title>
<path fill="none" stroke="#29235c" stroke-width="3" d="M1264.26,-615.39C1570.99,-615.39 1711.31,-439.22 1954.32,-626.39 2100.43,-738.92 1888.99,-1022.6 2058.74,-1033.09"/>
<polygon fill="#29235c" stroke="#29235c" stroke-width="3" points="2058.68,-1036.59 2068.78,-1033.39 2058.88,-1029.59 2058.68,-1036.59"/>
<text text-anchor="middle" x="2062.55" y="-1042.99" font-family="Helvetica,sans-Serif" font-size="32.00" fill="#29235c">*</text>
<text text-anchor="middle" x="1273.16" y="-586.59" font-family="Helvetica,sans-Serif" font-size="32.00" fill="#29235c">1</text>
</g>
<!-- Jury -->
<g id="Jury" class="node">
<title>Jury</title>
<ellipse fill="none" stroke="black" stroke-width="0" cx="339.41" cy="-705.39" rx="229.21" ry="172.57"/>
<polygon fill="#1d71b8" stroke="transparent" points="179.41,-765.39 179.41,-825.39 499.41,-825.39 499.41,-765.39 179.41,-765.39"/>
<polygon fill="none" stroke="#29235c" points="179.41,-765.39 179.41,-825.39 499.41,-825.39 499.41,-765.39 179.41,-765.39"/>
<text text-anchor="start" x="246.94" y="-786.59" font-family="Helvetica,sans-Serif" font-weight="bold" font-size="32.00" fill="#ffffff"> &#160;&#160;&#160;&#160;&#160;&#160;Jury &#160;&#160;&#160;&#160;&#160;&#160;</text>
<polygon fill="#e7e2dd" stroke="transparent" points="179.41,-705.39 179.41,-765.39 499.41,-765.39 499.41,-705.39 179.41,-705.39"/>
<polygon fill="none" stroke="#29235c" points="179.41,-705.39 179.41,-765.39 499.41,-765.39 499.41,-705.39 179.41,-705.39"/>
<text text-anchor="start" x="190.41" y="-726.59" font-family="Helvetica,sans-Serif" font-weight="bold" font-size="32.00" fill="#29235c">id</text>
<text text-anchor="start" x="215.3" y="-726.59" font-family="Helvetica,sans-Serif" font-size="32.00" fill="#29235c"> &#160;&#160;&#160;</text>
<text text-anchor="start" x="346.19" y="-726.59" font-family="Helvetica,sans-Serif" font-style="italic" font-size="32.00" fill="#29235c">INTEGER</text>
<polygon fill="#e7e2dd" stroke="transparent" points="179.41,-645.39 179.41,-705.39 499.41,-705.39 499.41,-645.39 179.41,-645.39"/>
<polygon fill="none" stroke="#29235c" points="179.41,-645.39 179.41,-705.39 499.41,-705.39 499.41,-645.39 179.41,-645.39"/>
<text text-anchor="start" x="190.16" y="-665.59" font-family="Helvetica,sans-Serif" font-size="32.00" fill="#29235c">event_id &#160;&#160;&#160;</text>
<text text-anchor="start" x="346.3" y="-666.59" font-family="Helvetica,sans-Serif" font-style="italic" font-size="32.00" fill="#29235c">INTEGER</text>
<polygon fill="#e7e2dd" stroke="transparent" points="179.41,-585.39 179.41,-645.39 499.41,-645.39 499.41,-585.39 179.41,-585.39"/>
<polygon fill="none" stroke="#29235c" points="179.41,-585.39 179.41,-645.39 499.41,-645.39 499.41,-585.39 179.41,-585.39"/>
<text text-anchor="start" x="190.16" y="-605.59" font-family="Helvetica,sans-Serif" font-size="32.00" fill="#29235c">judge_id &#160;&#160;&#160;</text>
<text text-anchor="start" x="346.3" y="-606.59" font-family="Helvetica,sans-Serif" font-style="italic" font-size="32.00" fill="#29235c">INTEGER</text>
<polygon fill="none" stroke="#29235c" stroke-width="2" points="178.41,-584.39 178.41,-826.39 500.41,-826.39 500.41,-584.39 178.41,-584.39"/>
</g>
<!-- Jury&#45;&gt;Event -->
<!-- Jury&#45;&gt;Event -->
<g id="edge18" class="edge">
<title>Jury:e&#45;&gt;Event:w</title>
<path fill="none" stroke="#29235c" stroke-width="3" d="M500.41,-675.39C623.22,-675.39 633.59,-772.21 678.82,-886.39 735.04,-1028.31 675.71,-1424.83 714.82,-1572.39 759.43,-1740.69 718.35,-1922.15 884.11,-1929.18"/>
<polygon fill="#29235c" stroke="#29235c" stroke-width="3" points="884.19,-1932.68 894.26,-1929.39 884.34,-1925.68 884.19,-1932.68"/>
<text text-anchor="middle" x="888.04" y="-1938.99" font-family="Helvetica,sans-Serif" font-size="32.00" fill="#29235c">*</text>
<text text-anchor="middle" x="509.31" y="-646.59" font-family="Helvetica,sans-Serif" font-size="32.00" fill="#29235c">1</text>
</g>
<!-- Jury&#45;&gt;Judge -->
<!-- Jury&#45;&gt;Judge -->
<g id="edge20" class="edge">
<title>Jury:e&#45;&gt;Judge:w</title>
<path fill="none" stroke="#29235c" stroke-width="3" d="M500.41,-615.39C644.63,-615.39 661.83,-729.83 800.1,-735.19"/>
<polygon fill="#29235c" stroke="#29235c" stroke-width="3" points="800.2,-738.69 810.26,-735.39 800.33,-731.7 800.2,-738.69"/>
<text text-anchor="middle" x="816.49" y="-706.59" font-family="Helvetica,sans-Serif" font-size="32.00" fill="#29235c">*</text>
<text text-anchor="middle" x="509.31" y="-586.59" font-family="Helvetica,sans-Serif" font-size="32.00" fill="#29235c">1</text>
</g>
<!-- Performance -->
<g id="Performance" class="node">
<title>Performance</title>
<ellipse fill="none" stroke="black" stroke-width="0" cx="339.41" cy="-1473.39" rx="339.32" ry="214.92"/>
<polygon fill="#1d71b8" stroke="transparent" points="101.41,-1563.39 101.41,-1623.39 577.41,-1623.39 577.41,-1563.39 101.41,-1563.39"/>
<polygon fill="none" stroke="#29235c" points="101.41,-1563.39 101.41,-1623.39 577.41,-1623.39 577.41,-1563.39 101.41,-1563.39"/>
<text text-anchor="start" x="185.59" y="-1584.59" font-family="Helvetica,sans-Serif" font-weight="bold" font-size="32.00" fill="#ffffff"> &#160;&#160;&#160;&#160;&#160;&#160;Performance &#160;&#160;&#160;&#160;&#160;&#160;</text>
<polygon fill="#e7e2dd" stroke="transparent" points="101.41,-1503.39 101.41,-1563.39 577.41,-1563.39 577.41,-1503.39 101.41,-1503.39"/>
<polygon fill="none" stroke="#29235c" points="101.41,-1503.39 101.41,-1563.39 577.41,-1563.39 577.41,-1503.39 101.41,-1503.39"/>
<text text-anchor="start" x="112.41" y="-1524.59" font-family="Helvetica,sans-Serif" font-weight="bold" font-size="32.00" fill="#29235c">id</text>
<text text-anchor="start" x="137.3" y="-1524.59" font-family="Helvetica,sans-Serif" font-size="32.00" fill="#29235c"> &#160;&#160;&#160;</text>
<text text-anchor="start" x="424.19" y="-1524.59" font-family="Helvetica,sans-Serif" font-style="italic" font-size="32.00" fill="#29235c">INTEGER</text>
<polygon fill="#e7e2dd" stroke="transparent" points="101.41,-1443.39 101.41,-1503.39 577.41,-1503.39 577.41,-1443.39 101.41,-1443.39"/>
<polygon fill="none" stroke="#29235c" points="101.41,-1443.39 101.41,-1503.39 577.41,-1503.39 577.41,-1443.39 101.41,-1443.39"/>
<text text-anchor="start" x="112.41" y="-1463.59" font-family="Helvetica,sans-Serif" font-size="32.00" fill="#29235c">event_id &#160;&#160;&#160;</text>
<text text-anchor="start" x="424.19" y="-1464.59" font-family="Helvetica,sans-Serif" font-style="italic" font-size="32.00" fill="#29235c">INTEGER</text>
<polygon fill="#e7e2dd" stroke="transparent" points="101.41,-1383.39 101.41,-1443.39 577.41,-1443.39 577.41,-1383.39 101.41,-1383.39"/>
<polygon fill="none" stroke="#29235c" points="101.41,-1383.39 101.41,-1443.39 577.41,-1443.39 577.41,-1383.39 101.41,-1383.39"/>
<text text-anchor="start" x="112.41" y="-1403.59" font-family="Helvetica,sans-Serif" font-size="32.00" fill="#29235c">song_id &#160;&#160;&#160;</text>
<text text-anchor="start" x="424.19" y="-1404.59" font-family="Helvetica,sans-Serif" font-style="italic" font-size="32.00" fill="#29235c">INTEGER</text>
<polygon fill="#e7e2dd" stroke="transparent" points="101.41,-1323.39 101.41,-1383.39 577.41,-1383.39 577.41,-1323.39 101.41,-1323.39"/>
<polygon fill="none" stroke="#29235c" points="101.41,-1323.39 101.41,-1383.39 577.41,-1383.39 577.41,-1323.39 101.41,-1323.39"/>
<text text-anchor="start" x="112.22" y="-1343.59" font-family="Helvetica,sans-Serif" font-size="32.00" fill="#29235c">performance_time &#160;&#160;&#160;</text>
<text text-anchor="start" x="405.03" y="-1344.59" font-family="Helvetica,sans-Serif" font-style="italic" font-size="32.00" fill="#29235c">DATETIME</text>
<polygon fill="none" stroke="#29235c" stroke-width="2" points="100.41,-1322.39 100.41,-1624.39 578.41,-1624.39 578.41,-1322.39 100.41,-1322.39"/>
</g>
<!-- Performance&#45;&gt;Event -->
<!-- Performance&#45;&gt;Event -->
<g id="edge22" class="edge">
<title>Performance:e&#45;&gt;Event:w</title>
<path fill="none" stroke="#29235c" stroke-width="3" d="M578.41,-1473.39C821.46,-1473.39 652.66,-1916.56 884.04,-1929.12"/>
<polygon fill="#29235c" stroke="#29235c" stroke-width="3" points="884.17,-1932.62 894.26,-1929.39 884.36,-1925.62 884.17,-1932.62"/>
<text text-anchor="middle" x="888.04" y="-1900.59" font-family="Helvetica,sans-Serif" font-size="32.00" fill="#29235c">*</text>
<text text-anchor="middle" x="587.31" y="-1482.99" font-family="Helvetica,sans-Serif" font-size="32.00" fill="#29235c">1</text>
</g>
<!-- Performance&#45;&gt;Song -->
<!-- Performance&#45;&gt;Song -->
<g id="edge24" class="edge">
<title>Performance:e&#45;&gt;Song:w</title>
<path fill="none" stroke="#29235c" stroke-width="3" d="M578.41,-1413.39C692.48,-1413.39 722.99,-1397.37 832.16,-1396.43"/>
<polygon fill="#29235c" stroke="#29235c" stroke-width="3" points="832.28,-1399.93 842.26,-1396.39 832.25,-1392.93 832.28,-1399.93"/>
<text text-anchor="middle" x="848.49" y="-1367.59" font-family="Helvetica,sans-Serif" font-size="32.00" fill="#29235c">*</text>
<text text-anchor="middle" x="587.31" y="-1422.99" font-family="Helvetica,sans-Serif" font-size="32.00" fill="#29235c">1</text>
</g>
<!-- Vote -->
<g id="Vote" class="node">
<title>Vote</title>
<ellipse fill="none" stroke="black" stroke-width="0" cx="339.41" cy="-257.39" rx="255.03" ry="257.27"/>
<polygon fill="#1d71b8" stroke="transparent" points="161.41,-377.39 161.41,-437.39 518.41,-437.39 518.41,-377.39 161.41,-377.39"/>
<polygon fill="none" stroke="#29235c" points="161.41,-377.39 161.41,-437.39 518.41,-437.39 518.41,-377.39 161.41,-377.39"/>
<text text-anchor="start" x="244.76" y="-398.59" font-family="Helvetica,sans-Serif" font-weight="bold" font-size="32.00" fill="#ffffff"> &#160;&#160;&#160;&#160;&#160;&#160;Vote &#160;&#160;&#160;&#160;&#160;&#160;</text>
<polygon fill="#e7e2dd" stroke="transparent" points="161.41,-317.39 161.41,-377.39 518.41,-377.39 518.41,-317.39 161.41,-317.39"/>
<polygon fill="none" stroke="#29235c" points="161.41,-317.39 161.41,-377.39 518.41,-377.39 518.41,-317.39 161.41,-317.39"/>
<text text-anchor="start" x="172.41" y="-338.59" font-family="Helvetica,sans-Serif" font-weight="bold" font-size="32.00" fill="#29235c">id</text>
<text text-anchor="start" x="197.3" y="-338.59" font-family="Helvetica,sans-Serif" font-size="32.00" fill="#29235c"> &#160;&#160;&#160;</text>
<text text-anchor="start" x="365.19" y="-338.59" font-family="Helvetica,sans-Serif" font-style="italic" font-size="32.00" fill="#29235c">INTEGER</text>
<polygon fill="#e7e2dd" stroke="transparent" points="161.41,-257.39 161.41,-317.39 518.41,-317.39 518.41,-257.39 161.41,-257.39"/>
<polygon fill="none" stroke="#29235c" points="161.41,-257.39 161.41,-317.39 518.41,-317.39 518.41,-257.39 161.41,-257.39"/>
<text text-anchor="start" x="172.41" y="-277.59" font-family="Helvetica,sans-Serif" font-size="32.00" fill="#29235c">judge_id &#160;&#160;&#160;</text>
<text text-anchor="start" x="365.19" y="-278.59" font-family="Helvetica,sans-Serif" font-style="italic" font-size="32.00" fill="#29235c">INTEGER</text>
<polygon fill="#e7e2dd" stroke="transparent" points="161.41,-197.39 161.41,-257.39 518.41,-257.39 518.41,-197.39 161.41,-197.39"/>
<polygon fill="none" stroke="#29235c" points="161.41,-197.39 161.41,-257.39 518.41,-257.39 518.41,-197.39 161.41,-197.39"/>
<text text-anchor="start" x="172.41" y="-217.59" font-family="Helvetica,sans-Serif" font-size="32.00" fill="#29235c">song_id &#160;&#160;&#160;</text>
<text text-anchor="start" x="365.19" y="-218.59" font-family="Helvetica,sans-Serif" font-style="italic" font-size="32.00" fill="#29235c">INTEGER</text>
<polygon fill="#e7e2dd" stroke="transparent" points="161.41,-137.39 161.41,-197.39 518.41,-197.39 518.41,-137.39 161.41,-137.39"/>
<polygon fill="none" stroke="#29235c" points="161.41,-137.39 161.41,-197.39 518.41,-197.39 518.41,-137.39 161.41,-137.39"/>
<text text-anchor="start" x="172.41" y="-157.59" font-family="Helvetica,sans-Serif" font-size="32.00" fill="#29235c">points &#160;&#160;&#160;</text>
<text text-anchor="start" x="365.19" y="-158.59" font-family="Helvetica,sans-Serif" font-style="italic" font-size="32.00" fill="#29235c">INTEGER</text>
<polygon fill="#e7e2dd" stroke="transparent" points="161.41,-77.39 161.41,-137.39 518.41,-137.39 518.41,-77.39 161.41,-77.39"/>
<polygon fill="none" stroke="#29235c" points="161.41,-77.39 161.41,-137.39 518.41,-137.39 518.41,-77.39 161.41,-77.39"/>
<text text-anchor="start" x="172.28" y="-97.59" font-family="Helvetica,sans-Serif" font-size="32.00" fill="#29235c">vote_time &#160;&#160;&#160;</text>
<text text-anchor="start" x="346.03" y="-98.59" font-family="Helvetica,sans-Serif" font-style="italic" font-size="32.00" fill="#29235c">DATETIME</text>
<polygon fill="none" stroke="#29235c" stroke-width="2" points="159.91,-76.39 159.91,-438.39 518.91,-438.39 518.91,-76.39 159.91,-76.39"/>
</g>
<!-- Vote&#45;&gt;Song -->
<!-- Vote&#45;&gt;Song -->
<g id="edge28" class="edge">
<title>Vote:e&#45;&gt;Song:w</title>
<path fill="none" stroke="#29235c" stroke-width="3" d="M519.41,-227.39C668.83,-227.39 635.42,-380.41 678.82,-523.39 735.15,-708.93 648.06,-1372.49 832.12,-1395.76"/>
<polygon fill="#29235c" stroke="#29235c" stroke-width="3" points="832.07,-1399.26 842.26,-1396.39 832.5,-1392.28 832.07,-1399.26"/>
<text text-anchor="middle" x="836.04" y="-1405.99" font-family="Helvetica,sans-Serif" font-size="32.00" fill="#29235c">*</text>
<text text-anchor="middle" x="528.31" y="-198.59" font-family="Helvetica,sans-Serif" font-size="32.00" fill="#29235c">1</text>
</g>
<!-- Vote&#45;&gt;Judge -->
<!-- Vote&#45;&gt;Judge -->
<g id="edge26" class="edge">
<title>Vote:e&#45;&gt;Judge:w</title>
<path fill="none" stroke="#29235c" stroke-width="3" d="M519.41,-287.39C645.99,-287.39 610.04,-417.13 678.82,-523.39 737.13,-613.45 701.85,-727.75 800.01,-735.02"/>
<polygon fill="#29235c" stroke="#29235c" stroke-width="3" points="800.14,-738.53 810.26,-735.39 800.39,-731.53 800.14,-738.53"/>
<text text-anchor="middle" x="816.49" y="-744.99" font-family="Helvetica,sans-Serif" font-size="32.00" fill="#29235c">*</text>
<text text-anchor="middle" x="528.31" y="-258.59" font-family="Helvetica,sans-Serif" font-size="32.00" fill="#29235c">1</text>
</g>
<!-- VoteSummary -->
<g id="VoteSummary" class="node">
<title>VoteSummary</title>
<ellipse fill="none" stroke="black" stroke-width="0" cx="339.41" cy="-1068.39" rx="259.52" ry="172.57"/>
<polygon fill="#1d71b8" stroke="transparent" points="158.41,-1128.39 158.41,-1188.39 521.41,-1188.39 521.41,-1128.39 158.41,-1128.39"/>
<polygon fill="none" stroke="#29235c" points="158.41,-1128.39 158.41,-1188.39 521.41,-1188.39 521.41,-1128.39 158.41,-1128.39"/>
<text text-anchor="start" x="176.32" y="-1149.59" font-family="Helvetica,sans-Serif" font-weight="bold" font-size="32.00" fill="#ffffff"> &#160;&#160;&#160;&#160;&#160;&#160;VoteSummary &#160;&#160;&#160;&#160;&#160;&#160;</text>
<polygon fill="#e7e2dd" stroke="transparent" points="158.41,-1068.39 158.41,-1128.39 521.41,-1128.39 521.41,-1068.39 158.41,-1068.39"/>
<polygon fill="none" stroke="#29235c" points="158.41,-1068.39 158.41,-1128.39 521.41,-1128.39 521.41,-1068.39 158.41,-1068.39"/>
<text text-anchor="start" x="169.41" y="-1089.59" font-family="Helvetica,sans-Serif" font-weight="bold" font-size="32.00" fill="#29235c">id</text>
<text text-anchor="start" x="194.3" y="-1089.59" font-family="Helvetica,sans-Serif" font-size="32.00" fill="#29235c"> &#160;&#160;&#160;</text>
<text text-anchor="start" x="368.19" y="-1089.59" font-family="Helvetica,sans-Serif" font-style="italic" font-size="32.00" fill="#29235c">INTEGER</text>
<polygon fill="#e7e2dd" stroke="transparent" points="158.41,-1008.39 158.41,-1068.39 521.41,-1068.39 521.41,-1008.39 158.41,-1008.39"/>
<polygon fill="none" stroke="#29235c" points="158.41,-1008.39 158.41,-1068.39 521.41,-1068.39 521.41,-1008.39 158.41,-1008.39"/>
<text text-anchor="start" x="169.41" y="-1028.59" font-family="Helvetica,sans-Serif" font-size="32.00" fill="#29235c">song_id &#160;&#160;&#160;</text>
<text text-anchor="start" x="368.19" y="-1029.59" font-family="Helvetica,sans-Serif" font-style="italic" font-size="32.00" fill="#29235c">INTEGER</text>
<polygon fill="#e7e2dd" stroke="transparent" points="158.41,-948.39 158.41,-1008.39 521.41,-1008.39 521.41,-948.39 158.41,-948.39"/>
<polygon fill="none" stroke="#29235c" points="158.41,-948.39 158.41,-1008.39 521.41,-1008.39 521.41,-948.39 158.41,-948.39"/>
<text text-anchor="start" x="169.32" y="-968.59" font-family="Helvetica,sans-Serif" font-size="32.00" fill="#29235c">total_points &#160;&#160;&#160;</text>
<text text-anchor="start" x="368.3" y="-969.59" font-family="Helvetica,sans-Serif" font-style="italic" font-size="32.00" fill="#29235c">INTEGER</text>
<polygon fill="none" stroke="#29235c" stroke-width="2" points="156.91,-947.39 156.91,-1189.39 521.91,-1189.39 521.91,-947.39 156.91,-947.39"/>
</g>
<!-- VoteSummary&#45;&gt;Song -->
<!-- VoteSummary&#45;&gt;Song -->
<g id="edge30" class="edge">
<title>VoteSummary:e&#45;&gt;Song:w</title>
<path fill="none" stroke="#29235c" stroke-width="3" d="M522.41,-1038.39C732.34,-1038.39 632.26,-1384.94 832.2,-1396.11"/>
<polygon fill="#29235c" stroke="#29235c" stroke-width="3" points="832.17,-1399.61 842.26,-1396.39 832.36,-1392.61 832.17,-1399.61"/>
<text text-anchor="middle" x="836.04" y="-1367.59" font-family="Helvetica,sans-Serif" font-size="32.00" fill="#29235c">*</text>
<text text-anchor="middle" x="531.31" y="-1009.59" font-family="Helvetica,sans-Serif" font-size="32.00" fill="#29235c">1</text>
</g>
</g>
</svg>
